<?xml version="1.0" encoding="iso-8859-1"?>
<!-- Generator: Adobe Illustrator 19.0.0, SVG Export Plug-In . SVG Version: 6.00 Build 0)  -->
<svg version="1.1" id="Capa_1" xmlns="http://www.w3.org/2000/svg" xmlns:xlink="http://www.w3.org/1999/xlink" x="0px" y="0px"
	 viewBox="0 0 512.001 512.001" style="enable-background:new 0 0 512.001 512.001;" xml:space="preserve">
<path style="fill:#FE9923;" d="M510.414,264.192l-26.646-53.291l26.646-54.306c2.109-4.219,2.109-9.199,0-13.418l-26.646-53.276
	l26.646-53.291c2.883-5.749,1.816-12.844-3.036-17.535c-2.849-2.754-6.734-2.975-10.697-2.975H194.998
	c-0.345,0-31.699,10.758-26.804,19.523L374.997,405.9h121.684c3.962,0,7.848-1.42,10.697-4.174
	c4.852-4.691,5.92-11.786,3.036-17.535L483.768,330.9l26.646-53.291C512.526,273.387,512.526,268.416,510.414,264.192z"/>
<path style="fill:#FEDBAB;" d="M389.997,89.902V405.9c0,51.301-83.698,89.999-194.998,89.999S0,457.2,0,405.9V89.902
	c0-8.401,6.599-15,15-15h359.997C383.398,74.902,389.997,81.502,389.997,89.902z"/>
<g>
	<path style="fill:#FEC478;" d="M389.997,89.902V405.9c0,51.301-83.698,89.999-194.998,89.999V74.902h179.999
		C383.398,74.902,389.997,81.502,389.997,89.902z"/>
	<path style="fill:#FEC478;" d="M389.997,89.902c0,24.901-25.201,43.801-62.7,56.4c1.8-3.6-27.299-7.5-27.299-11.4H89.999
		c0,3.9-29.099,7.8-27.299,11.4C25.201,133.703,0,114.803,0,89.902c0-49.2,97.499-73.8,194.998-73.8S389.997,40.703,389.997,89.902z
		"/>
</g>
<path style="fill:#FEA832;" d="M329.997,134.902c0,3.9-0.901,7.8-2.701,11.4c-36.299,12.299-84.597,18.6-132.298,18.6
	s-95.999-6.301-132.298-18.6c-1.8-3.6-2.701-7.5-2.701-11.4c0-32.999,60.3-60,134.999-60S329.997,101.903,329.997,134.902z"/>
<path style="fill:#FEB756;" d="M389.997,89.902c0,24.901-25.201,43.801-62.7,56.4c1.8-3.6-27.299-7.5-27.299-11.4H194.998V16.103
	C292.498,16.103,389.997,40.703,389.997,89.902z"/>
<path style="fill:#FE9923;" d="M329.997,134.902c0,3.9-0.901,7.8-2.701,11.4c-36.299,12.299-84.597,18.6-132.298,18.6V74.902
	C269.698,74.902,329.997,101.903,329.997,134.902z"/>
<path style="fill:#FD3018;" d="M194.998,195.901c-57.9,0-104.999,47.1-104.999,104.999S137.099,405.9,194.998,405.9
	S299.998,358.8,299.998,300.9S252.898,195.901,194.998,195.901z"/>
<path style="fill:#B80000;" d="M299.998,300.901c0,57.9-47.1,104.999-104.999,104.999V195.901
	C252.898,195.901,299.998,243.002,299.998,300.901z"/>
<path style="fill:#EFE6DE;" d="M239.998,300.901c0,8.401-6.599,15-15,15h-15v15c0,8.401-6.599,15-15,15c-8.401,0-15-6.599-15-15v-15
	h-15c-8.401,0-15-6.599-15-15s6.599-15,15-15h15v-15c0-8.401,6.599-15,15-15c8.401,0,15,6.599,15,15v15h15
	C233.399,285.901,239.998,292.501,239.998,300.901z"/>
<path style="fill:#DFCCBF;" d="M239.998,300.901c0,8.401-6.599,15-15,15h-15v15c0,8.401-6.599,15-15,15v-89.999
	c8.401,0,15,6.599,15,15v15h15C233.399,285.901,239.998,292.501,239.998,300.901z"/>
<g>
</g>
<g>
</g>
<g>
</g>
<g>
</g>
<g>
</g>
<g>
</g>
<g>
</g>
<g>
</g>
<g>
</g>
<g>
</g>
<g>
</g>
<g>
</g>
<g>
</g>
<g>
</g>
<g>
</g>
</svg>
