<svg id="Layer_1" height="512" viewBox="0 0 512 512" width="512" xmlns="http://www.w3.org/2000/svg" data-name="Layer 1"><path d="m495.99 79.68c2.98 6.28 5.01 11.38 5.01 18.38a28.48 28.48 0 0 1 -56.96 0c0-7 2.4-12.84 5-18.38 4.6-9.77 23.48-37.6 23.48-37.6s18.81 27.76 23.47 37.6z" fill="#75d2fc"/><path d="m85.12 461.62-52.85-52.85a12.459 12.459 0 0 0 -17.62 17.62l52.85 52.85a12.459 12.459 0 0 0 17.62-17.62z" fill="#b0b5ca"/><path d="m115.81 395.7-48.31 48.3-17.61-17.61 48.3-48.31z" fill="#d4e1f4"/><path d="m364.45 155.87.29.29a12.029 12.029 0 0 1 0 17.03l-26.75 26.75-44.04-44.05 26.75-26.74a12.029 12.029 0 0 1 17.03 0l.29.29z" fill="#b7ff8d"/><path d="m396.91 96.97a18.7 18.7 0 0 1 0 26.43l-32.46 32.46v.01l-26.43-26.43 32.47-32.47a18.692 18.692 0 0 1 26.42 0z" fill="#b1e862"/><path d="m340.03 201.97-48.12-48.11a15.807 15.807 0 0 0 -22.35 0l-178.54 178.54v.01l70.47 70.47v-.01l178.54-178.54a15.819 15.819 0 0 0 0-22.36zm-60.8-26.86a.5.5 0 0 1 -.7 0 .5.5 0 0 1 0-.71.5.5 0 0 1 .7 0 .5.5 0 0 1 0 .71z" fill="#a0eaea"/><path d="m463.04 94.68c3.66-7.78 16.36-26.98 21.393-34.498-6.011-9.391-11.913-18.1-11.913-18.1s-18.88 27.83-23.48 37.6c-2.6 5.54-5 11.38-5 18.38a28.472 28.472 0 0 0 16.06 25.622 28.361 28.361 0 0 1 -2.058-10.624c-.002-7 2.398-12.84 4.998-18.38z" fill="#5ebad3"/><path d="m338.02 129.44-.29-.29a12.029 12.029 0 0 0 -17.03 0l-26.75 26.74 14.5 14.5 26.25-26.24a12.029 12.029 0 0 1 17.03 0l.29.29z" fill="#9fdd76"/><path d="m402.1 107.047a18.661 18.661 0 0 0 -31.61-10.077l-32.47 32.47 14.5 14.5 31.97-31.97a18.669 18.669 0 0 1 17.61-4.923z" fill="#9ec94c"/><path d="m291.91 153.86a15.807 15.807 0 0 0 -22.35 0l-178.54 178.54v.01l14.5 14.495 178.04-178.045a15.807 15.807 0 0 1 22.35 0z" fill="#83ccc8"/><circle cx="278.88" cy="174.755" fill="#a0eaea" r=".497"/><path d="m167.9 409.29-83.3-83.3a13.612 13.612 0 0 0 -19.25 19.25l83.3 83.3a13.612 13.612 0 0 0 19.25-19.25z" fill="#b0b5ca"/><g fill="#344d6b"><path d="m477.486 38.719a6 6 0 0 0 -4.965-2.634 6 6 0 0 0 -4.966 2.631c-.781 1.152-19.193 28.325-23.94 38.411-2.7 5.734-5.576 12.554-5.576 20.937a34.481 34.481 0 0 0 68.962 0c0-8.48-2.529-14.506-5.583-20.953-4.81-10.145-23.153-37.244-23.932-38.392zm-4.966 81.807a22.5 22.5 0 0 1 -22.482-22.462c0-5.909 2.19-11.06 4.433-15.828 2.919-6.2 12.2-20.52 18.046-29.352 5.834 8.816 15.092 23.116 18.056 29.366 3 6.331 4.427 10.312 4.427 15.814a22.5 22.5 0 0 1 -22.48 22.462z"/><path d="m63.258 483.481a18.457 18.457 0 1 0 26.1-26.1l-13.372-13.381 39.821-39.82 28.6 28.6a19.613 19.613 0 1 0 27.737-27.738l-2.174-2.175 174.3-174.3a21.756 21.756 0 0 0 2.033-28.458l22.68-22.68a18.069 18.069 0 0 0 3.317-20.929l28.856-28.856a24.709 24.709 0 0 0 3.7-30.126l64.161-64.161a6 6 0 1 0 -8.486-8.485l-64.131 64.133a24.711 24.711 0 0 0 -30.152 3.725l-28.858 28.856a18.073 18.073 0 0 0 -20.935 3.317l-22.68 22.681a21.758 21.758 0 0 0 -28.459 2.032l-174.3 174.3-2.174-2.175a19.613 19.613 0 1 0 -27.742 27.739l28.6 28.6-39.816 39.82-13.375-13.374a18.458 18.458 0 0 0 -26.1 26.1zm311.473-382.265a12.686 12.686 0 0 1 17.941 17.941l-28.223 28.222-17.94-17.941zm-49.791 32.173a6.052 6.052 0 0 1 8.549 0l27.011 27.011a6.051 6.051 0 0 1 0 8.548l-22.506 22.506-35.559-35.554zm-51.14 24.711a9.805 9.805 0 0 1 13.869 0l48.115 48.115a9.805 9.805 0 0 1 0 13.869l-15.614 15.616-22.184-22.184a6 6 0 0 0 -8.486 8.484l22.183 22.184-12.949 12.949-8.97-8.97a6 6 0 1 0 -8.486 8.485l8.971 8.97-12.949 12.954-22.184-22.184a6 6 0 1 0 -8.485 8.486l22.183 22.183-12.949 12.949-8.97-8.97a6 6 0 0 0 -8.486 8.485l8.97 8.971-12.949 12.949-22.183-22.184a6 6 0 0 0 -8.486 8.486l22.184 22.183-12.945 12.95-8.971-8.971a6 6 0 0 0 -8.485 8.486l8.97 8.97-12.952 12.949-22.184-22.184a6 6 0 0 0 -8.485 8.486l22.184 22.188-21.592 21.591-61.985-61.991zm-204.211 182.9a7.613 7.613 0 0 1 10.766-10.767l83.305 83.3a7.613 7.613 0 0 1 -10.767 10.767zm28.6 45.571 9.132 9.132-39.821 39.816-9.132-9.132zm-79.3 26.446a6.465 6.465 0 0 1 9.132 0l52.853 52.852a6.457 6.457 0 1 1 -9.13 9.131l-52.853-52.856a6.458 6.458 0 0 1 0-9.132z"/><path d="m278.88 181.254a6.5 6.5 0 1 0 -4.6-11.093 6.5 6.5 0 0 0 4.6 11.093z"/><path d="m197.718 262.623a5.986 5.986 0 0 0 4.243-1.757l69.139-69.141a6 6 0 0 0 -8.486-8.485l-69.141 69.14a6 6 0 0 0 4.243 10.243z"/></g></svg>