<?xml version="1.0" encoding="UTF-8"?>
<svg id="Capa_1" data-name="Capa 1" xmlns="http://www.w3.org/2000/svg" viewBox="0 0 512 512">
  <defs>
    <style>
      .cls-1 {
        fill: #fff;
      }

      .cls-2 {
        fill: #193672;
      }
    </style>
  </defs>
  <rect class="cls-2" width="512" height="512" rx="76.24" ry="76.24"/>
  <g>
    <path class="cls-1" d="M425.93,300.74c-2.99-.75-5.67-1.29-8.2-1.63-1.63-.22-2.23-.59-2.78-2.42-1.71-5.68-3.95-11.17-5.92-15.8-.64-1.49-1.53-2.9-2.39-4.25-1.29-2.04-2.52-3.97-2.46-5.55,.06-1.73,1.64-3.84,3.17-5.87,.81-1.07,1.64-2.18,2.33-3.33,2.29-3.79,1.89-7.69-1.1-10.71-7.87-7.96-16.42-16.51-26.12-26.14-3.16-3.14-7.2-3.51-11.07-1.02l-1.08,.69c-2.04,1.31-4.15,2.65-6.15,4.16-.91,.69-1.32,.77-2.76,.14-8.44-3.74-16.76-7.19-24.75-10.25-1.81-.69-1.92-1.06-2.01-1.83l-.42-3.76c-.45-3.92-.91-7.97-1.27-11.95-.14-1.53-.19-3.13-.24-4.68-.09-2.71-.18-5.52-.73-8.28-3.66-18.21-13.5-29.94-29.25-34.85-3.29-1.03-6.63-1.52-10.17-2.04-1.04-.15-2.1-.31-3.16-.48,0-1.12,.01-2.25,.02-3.39,.03-4.16,.05-8.46-.07-12.83-.12-4.28-.25-8.71-1.09-13.01-7.38-37.56-41.73-61.95-79.89-56.73-33.42,4.57-59.75,34.6-59.95,68.36-.03,4.43-.02,8.86-.01,13.37v4.6c-29.93,.67-43.57,24.4-43.57,46.3,0,10.95-.01,21.9-.03,32.85-.03,27.72-.07,56.38,.09,84.58,.07,13.15,4.97,25.47,13.43,33.78,8.15,8.01,19.39,12.19,32.4,12.02,8.32-.1,16.79-.08,24.98-.06,6.71,.01,13.65,.03,20.48-.02,1.63,0,1.83,.15,2.3,1.68l.36,1.2c1.16,3.87,2.36,7.87,4.69,11.2,4.97,7.08,4.73,12.32-.83,18.07-3.07,3.18-2.74,7.72,.81,11.29,9.34,9.39,17.8,17.84,25.86,25.84,3.32,3.29,7.37,3.64,11.42,.98,.61-.4,1.22-.79,1.84-1.19,1.79-1.15,3.63-2.33,5.37-3.68,.82-.64,1.2-.72,2.68,.02,1.25,.63,2.51,1.3,3.76,1.96,4.11,2.19,8.36,4.46,12.95,5.44,8.28,1.78,11.64,5.52,11.59,12.92,0,.29,.04,.6,.11,.91,1.09,4.32,4.05,6.71,8.35,6.71,5.86,0,11.71,.01,17.57,.01,3.54,0,7.08,0,10.61,0h8.74c4.41,0,7.4-2.36,8.43-6.65,.53-2.23,.95-4.51,1.35-6.71l.32-1.76c.3-1.58,.62-2.1,2.19-2.56l1.78-.51c5.37-1.54,10.91-3.14,15.71-6.07,6.98-4.26,11.71-4.01,16.85,.88,3.31,3.15,7.98,2.83,11.62-.79,8.24-8.19,16.45-16.4,24.66-24.62l.93-.93c3.45-3.45,3.83-7.62,1.06-11.74-.48-.72-.95-1.45-1.42-2.18-1-1.56-2.04-3.17-3.21-4.69-.66-.86-.74-1.21-.03-2.64,.6-1.21,1.24-2.41,1.87-3.62,2.31-4.39,4.71-8.94,5.76-13.84,1.68-7.79,5.21-10.93,12.58-11.2,4.71-.17,7.62-3.51,7.62-8.7-.02-12.18-.02-24.36,0-36.54,0-4.39-2.32-7.4-6.56-8.47Zm-37.32,77.94c-2.18,4.27-3.63,8.92,.52,13.95,.92,1.12,1.72,2.42,2.5,3.69,.07,.11,.14,.22,.2,.33l-16.72,16.7c-.23-.15-.47-.31-.71-.46-1.64-1.06-3.33-2.16-5-3.29-3.47-2.37-7.14-2.46-10.62-.26-9.96,6.3-20.65,10.65-31.79,12.94-5.9,1.21-7.43,5.64-8.07,8.87-.58,2.93-1.04,5.25-1.71,5.8-.64,.53-2.84,.53-5.94,.53-1.5,0-2.99,0-4.49-.02-3.64-.02-7.4-.04-11.11,.06-1.22,.04-1.48-.15-1.48-.15,0,0-.15-.2-.18-.92-.42-8.84-4.62-13.57-14.01-15.81-7.72-1.85-15.23-5.72-22.49-9.46l-2.53-1.3c-2.21-1.13-4.52-2.05-6.95-2.05-2.12,0-4.33,.7-6.63,2.58-1.2,.98-2.6,1.84-3.94,2.67-.14,.09-.28,.17-.42,.26l-16.78-16.8c.18-.27,.36-.54,.54-.81,1.15-1.73,2.33-3.53,3.55-5.3,2.44-3.52,2.51-7.09,.21-10.61-6.37-9.74-10.86-20.39-13.35-31.63-1.24-5.58-5.53-7.09-9.12-7.78-2.79-.54-5-.96-5.48-1.55-.48-.58-.48-2.69-.48-5.63,0-1.51,.01-3.02,.02-4.54,.03-3.63,.05-7.38-.08-11.08-.07-2.03,.04-2.03,1.45-2.09,8.43-.33,13.02-4.39,15.32-13.55,2.03-8.04,6.01-15.86,9.87-23.42l1.03-2.02c2.1-4.13,3.49-8.64-.51-13.58-.99-1.22-1.85-2.6-2.69-3.94-.08-.12-.15-.24-.23-.36l16.8-16.81c.24,.16,.48,.32,.73,.47,1.73,1.13,3.52,2.3,5.27,3.53,3.45,2.43,7.13,2.51,10.62,.22,9.73-6.36,20.37-10.85,31.62-13.36,5.62-1.25,7.13-5.51,7.81-9.08,.54-2.81,.97-5.03,1.56-5.52,.57-.48,2.67-.48,5.59-.48,1.57,0,3.13,0,4.7,.02,3.82,.02,7.77,.04,11.67-.06,.91-.02,1.18,.12,1.2,.12h0s.12,.22,.14,.82c.26,10.87,7.4,14.16,14.35,15.95,7.39,1.9,14.6,5.54,21.56,9.06,1.29,.65,2.57,1.3,3.86,1.94,3.55,1.76,7.82,3.08,12.55-.53,1.35-1.03,2.83-1.97,4.26-2.88,.16-.1,.33-.21,.49-.31l16.71,16.74c-.11,.18-.22,.35-.34,.53-.97,1.54-1.97,3.14-3.09,4.63-2.97,3.96-3.09,7.88-.38,12,6.19,9.41,10.5,19.56,12.83,30.16,1.12,5.13,4.13,7.96,9.46,8.91,2.45,.43,4.76,.84,5.23,1.39,.43,.51,.43,2.58,.43,5.24,0,1.6,0,3.19-.02,4.79-.02,3.92-.04,7.97,.06,11.97,.02,.99-.13,1.26-.13,1.26-.02,.01-.21,.11-.77,.13-10.95,.26-14.18,7.43-15.89,14.41-1.95,7.94-5.89,15.64-9.71,23.1l-.84,1.64Zm-209.1-34.2c-3.36-.09-6.72-.14-9.98-.18-9.25-.14-17.98-.26-26.78-1.15-10.43-1.05-18.68-10.22-20.53-22.83-.48-3.29-.73-6.57-.73-9.74-.05-35.59-.09-73.49,.04-111.16,.01-3.83,.58-7.87,1.63-11.69,3.51-12.73,12.73-19.76,25.96-19.8,23.93-.07,47.62-.11,70.9-.11s46.26,.04,68.6,.11c14.73,.05,25.09,9.37,27.04,24.33,.3,2.34,.48,4.73,.67,7.26,.04,.51,.08,1.02,.11,1.54h-6.3s-20.29,0-20.29,0c-7.03,0-10.49,1.39-11.15,9.29-.51,6.15-2.92,8.9-9.21,10.5-5.26,1.34-10.17,3.89-14.93,6.37-1.16,.61-2.33,1.21-3.49,1.79-1.58,.8-2.07,.71-3.04-.03-2.31-1.74-4.76-3.28-7.14-4.77l-.44-.27c-3.88-2.44-7.8-2.01-11.04,1.21-9.36,9.32-17.81,17.77-25.84,25.85-3.54,3.57-3.88,8.1-.83,11.29,5.3,5.55,5.56,10.55,.92,17.85-2.65,4.17-4.04,9.06-5.38,13.78-.25,.89-.5,1.78-.76,2.65-.5,1.68-1.08,2.21-2.74,2.47-2.14,.34-4.43,.78-6.97,1.36-6.43,1.45-8.29,3.73-8.29,10.19,0,7.5,0,14.99,0,22.49v11.4Zm92.82-199.52c-.05,1.99-.11,4.03-.14,6.08h-20.11c0-1.36,.02-2.71,.03-4.07,.04-4.47,.08-9.09-.08-13.64-.47-13.44-6.86-23.37-18.47-28.71-10.9-5.01-23.22-4.31-32.96,1.89-9.37,5.96-14.79,16.12-14.87,27.87-.03,4.14-.02,8.29-.01,12.58,0,1.35,0,2.71,0,4.08h-20.38c-3.31-35.05,9.22-57.75,37.27-67.47,14.92-5.17,31.32-3.16,44.99,5.51,13.84,8.79,22.76,22.99,24.46,38.97,.59,5.52,.43,11.05,.27,16.91Zm-70.12,.57c.2-5.9,.38-11.47,1.43-16.93,1.29-6.69,8.45-11.2,16.67-10.49,8.59,.74,14.18,6.14,14.95,14.45,.42,4.55,.32,9.12,.21,13.96-.03,1.5-.07,3.04-.09,4.6h-33.39c.09-1.88,.15-3.76,.22-5.59Z"/>
    <path class="cls-1" d="M306.1,244.61h-.02c-45.75,0-82.98,37.02-83.02,82.53-.02,22.33,8.54,43.27,24.1,58.98,15.56,15.71,36.34,24.38,58.5,24.4h.09c22.24,0,43.12-8.58,58.8-24.16,15.71-15.6,24.37-36.41,24.39-58.59,.02-22.26-8.57-43.16-24.19-58.84-15.62-15.68-36.45-24.32-58.65-24.33Zm-34.5,137.59c3.27-15.75,18.05-27.63,34.37-27.65h.03c16.24,0,31.02,11.86,34.39,27.59,.33,1.54,.19,2.08-1.45,3.01-9.77,5.49-20.84,8.45-32.88,8.79-12.44-.36-23.31-3.28-33.24-8.93-1.33-.76-1.53-1.23-1.21-2.81Zm36.42-44.08c-.78-.03-1.54-.04-2.31-.04-22.45,0-38.79,11.36-48.62,33.79-9.24-9.21-15.55-23.02-17.04-37.58-1.78-17.4,3.23-34.45,14.1-48,11.9-14.82,28.78-23.68,47.53-24.94,18.59-1.24,36.3,5.16,49.87,18.06,13.25,12.59,20.6,29.49,20.7,47.6,.1,16.83-6.19,33.09-17.35,45.09-9.3-21.82-25.07-33.25-46.89-33.98Z"/>
    <path class="cls-1" d="M306,269.5h0c-18.27,0-33.15,14.84-33.16,33.08-.02,18.33,14.77,33.26,32.97,33.28h.05c18.33,0,33.28-14.74,33.33-32.88,.03-9.06-3.41-17.51-9.68-23.8-6.22-6.24-14.56-9.68-23.49-9.68Zm16.57,33.2c-.03,8.92-7.59,16.51-16.52,16.57-8.87,.05-16.5-7.47-16.62-16.44-.12-8.89,7.36-16.54,16.33-16.71,.09,0,.19,0,.28,0,4.2,0,8.38,1.75,11.5,4.83,3.21,3.16,5.04,7.44,5.02,11.76Z"/>
  </g>
</svg>