<?xml version="1.0" encoding="UTF-8"?>
<svg id="Capa_1" data-name="Capa 1" xmlns="http://www.w3.org/2000/svg" viewBox="0 0 512 512">
  <defs>
    <style>
      .cls-1 {
        fill: #fff;
      }

      .cls-2 {
        fill: #193672;
      }
    </style>
  </defs>
  <rect class="cls-2" width="512" height="512" rx="76.24" ry="76.24"/>
  <g>
    <path class="cls-1" d="M230.2,393.09c-1.92-.32-3.76-.35-5.79-.35-34.93-.02-69.85,0-104.78-.05-2.8,0-5.76-.07-8.39-.74-9.82-2.52-15.22-10.27-15.23-21.82-.02-96.12-.01-175.91,.02-251.09,0-2.1,.08-4.83,.71-7.26,2.55-9.81,10.31-15.21,21.85-15.22,19.02,0,38.02,0,57.04,.02,42.63,.03,86.72,.06,130.08-.14,.05,0,.09,0,.14,0,6.56,0,12.18,2.18,16.27,6.32,4.11,4.16,6.4,10.07,6.3,16.23-.38,22.73-.3,45.83-.22,68.17,.03,8.35,.06,16.71,.07,25.06,0,4.04,1.27,7.41,3.67,9.77,2.14,2.1,4.96,3.17,8.19,3.12,6.82-.12,11.4-5.29,11.41-12.85l.02-18.45c.03-25.11,.05-51.08-.04-76.62-.07-18.39-6.48-42.11-34.17-42.84-.91-.02-208.9-.02-209.04-.01-36.13,.72-35.39,35.53-35.39,35.53V365.88c0,11.57,0,50.06,44.72,50.06,.21,0,.43,0,.65,0,25.11-.34,50.67-.27,75.38-.2,10.61,.03,21.21,.06,31.82,.06h.95c.77,.01,1.57,.03,2.42-.03,5.87-.38,10.37-4.9,10.71-10.75,.35-6.04-3.51-10.95-9.37-11.93Z"/>
    <path class="cls-1" d="M432.13,280.85c-20.1-20.35-47.11-31.66-76.04-31.83-.21,0-.43,0-.64,0-28.18,0-54.79,11.02-75.01,31.06-20.53,20.36-31.87,47.43-31.93,76.22-.07,28.39,11,55.26,31.16,75.64,20.17,20.39,46.83,31.67,75.08,31.75,.12,0,.23,0,.35,0,28.75,0,55.8-10.99,76.19-30.95,20.48-20.06,31.81-46.81,31.89-75.3,.08-29.04-10.94-56.24-31.04-76.59Zm-76.01,159.75c-.12,0-.25,0-.37,0-46.53-.2-84.3-38.03-84.2-84.33,.05-22.38,8.9-43.51,24.93-59.49,15.99-15.94,37.06-24.71,59.36-24.71h.16c22.45,.04,43.59,8.9,59.53,24.93,15.91,16,24.62,37.13,24.53,59.5-.09,22.57-8.91,43.74-24.84,59.62-15.83,15.79-36.8,24.47-59.09,24.47Z"/>
    <path class="cls-1" d="M256.42,260.04c.15,6.97,4.82,11.92,11.37,12.03,.08,0,.16,0,.24,0,6.62,0,11.5-5.03,11.63-12.05,.11-6.03,.19-11.48-.06-17.05-1-22.74-18.48-40.59-40.67-41.51-15-.62-30.25-.46-44.99-.29l-6.78,.07c-19.7,.19-37.29,14.37-40.92,32.99-1.3,6.69-1.28,13.57-1.27,20.22,0,2.47,.01,5.03-.05,7.5-.06,2.26,1.21,4.23,2.17,5.52,2.29,3.08,5.42,4.7,8.91,4.7,1.14,0,2.31-.17,3.5-.52,5.07-1.49,8.08-5.4,8.24-10.72,.08-2.47,.09-4.96,.1-7.36,.02-3.57,.03-7.26,.26-10.83,.59-9.23,7.4-16.86,15.83-17.74,6.16-.64,16.71-.7,23.01-.73,1.52,0,2.78-.01,3.66-.03,.31,0,.78-.01,1.32-.08h0c2.48,.01,4.96,0,7.45,0,5.39-.02,10.97-.05,16.43,.05,11.83,.22,20.5,8.98,20.6,20.83,.02,2.05,0,4.11,0,6.16-.01,2.89-.02,5.88,.04,8.84Z"/>
    <path class="cls-1" d="M212.12,192.29h.03c19.5,0,35.39-15.81,35.44-35.26,.02-9.64-3.64-18.63-10.32-25.33-6.63-6.65-15.54-10.32-25.08-10.33h-.03c-9.57,0-18.53,3.72-25.24,10.47-6.68,6.72-10.32,15.64-10.25,25.12,.14,19.46,16.04,35.31,35.45,35.32Zm12.33-35.54c.02,3.32-1.3,6.47-3.69,8.87-2.34,2.35-5.4,3.64-8.6,3.64h-.04c-3.16,0-6.34-1.4-8.73-3.82-2.38-2.4-3.72-5.58-3.7-8.71,.06-6.67,5.59-12.15,12.33-12.23,.05,0,.1,0,.15,0,3.29,0,6.35,1.23,8.64,3.49,2.33,2.29,3.62,5.41,3.64,8.77h0Z"/>
    <path class="cls-1" d="M227.13,296.95c-32.29-.07-63.9-.07-93.94,0-3.86,0-7.08,1.24-9.32,3.56-2.09,2.17-3.14,5.08-3.03,8.43,.22,6.59,5.3,11.03,12.64,11.03,6.63,0,13.27,0,19.9,0,4.41,0,8.83,0,13.24,0h13.26s13.1,0,13.1,0c11.23,0,22.45,0,33.68,0,7.79,0,12.75-4.28,12.94-11.15,.09-3.26-.97-6.12-3.06-8.28-2.28-2.35-5.53-3.59-9.41-3.6Z"/>
    <path class="cls-1" d="M161.12,367.89h11.11s11.11,0,11.11,0c3.7,0,7.41,0,11.11,0,5.56,0,11.12,0,16.68-.01,7.35-.01,12.37-4.52,12.49-11.23,.06-3.29-1.01-6.17-3.1-8.3-2.21-2.26-5.33-3.46-9.02-3.47-26.23-.1-52.67-.1-78.56,0-3.69,.01-6.81,1.21-9.01,3.47-2.09,2.14-3.16,5.01-3.1,8.32,.13,6.7,5.15,11.21,12.5,11.22,9.26,.02,18.53,.01,27.79,0Z"/>
    <path class="cls-1" d="M394.98,312.98c-3.01,.28-5.94,1.82-8.25,4.34-2.33,2.56-4.62,5.2-6.84,7.75-.86,.99-1.73,1.99-2.6,2.98l-37.94,43.36c-1.58-1.58-3.16-3.16-4.72-4.73-6.11-6.12-11.88-11.9-17.81-17.77-5.08-5.02-12.19-5.33-16.9-.74-2.22,2.17-3.46,5.01-3.49,7.99-.03,3.22,1.35,6.4,3.87,8.95,11.88,12,21.74,21.85,31,30.98,2.63,2.59,5.61,3.95,8.66,3.95,.12,0,.25,0,.37,0,3.19-.12,6.22-1.72,8.78-4.63,17.63-20.09,36.11-41.24,54.92-62.84,4.55-5.22,4.36-12.21-.45-16.61-2.42-2.21-5.47-3.27-8.6-2.99Z"/>
  </g>
</svg>