<?xml version="1.0" encoding="UTF-8"?>
<svg id="Capa_1" data-name="Capa 1" xmlns="http://www.w3.org/2000/svg" viewBox="0 0 512 512">
  <defs>
    <style>
      .cls-1 {
        fill: #fff;
      }

      .cls-2 {
        fill: #193672;
      }
    </style>
  </defs>
  <rect class="cls-2" width="512" height="512" rx="76.24" ry="76.24"/>
  <g>
    <path class="cls-1" d="M461.61,128.57c-2.17-3.11-5.16-4.56-9.39-4.56h-.02c-60.5,.08-122.01,.08-181.49,.08h-48.45c-7.02,0-9.51,2.48-9.52,9.47,0,15.69,0,31.39,0,47.08v21.49c-4.08,0-8.13,0-12.16,0-12.68,.01-24.65,.02-36.87-.06-.04,0-.08,0-.12,0-3.41,0-6.05,1.01-8.55,3.26-11.28,10.16-22.87,20.44-34.08,30.38-3.56,3.16-7.13,6.32-10.7,9.49-3.41-4.73-8.18-4.4-12.43-4.11-2.35,.16-4.59,.31-6.64-.25v-2.92c0-2.8,.01-5.62,0-8.43-.04-4.64-2.58-7.58-6.63-7.69-10.87-.27-22.05-.28-34.16-.02-3.87,.08-6.48,2.92-6.65,7.22-.16,4.01,2.77,7.25,6.82,7.55,1.97,.15,3.96,.12,5.89,.1,.77,0,1.53-.02,2.31-.02,4.25,0,8.51,0,12.77,0h4.41s0,154.08,0,154.08c-2.18,0-4.34,0-6.5,0-6.01,0-11.7-.02-17.51,.03-4.99,.04-8.21,2.98-8.21,7.48,0,4.51,3.23,7.45,8.22,7.47,5.18,.03,10.39,.04,15.58,.04s10.24-.01,15.31-.04c5.56-.03,8.29-2.83,8.36-8.55,.03-2.67,.02-5.34,.02-8.1,0-.94,0-1.88,0-2.84,.99,0,1.96-.02,2.92-.04,2.71-.04,5.28-.08,7.8,.09,4.7,.31,7.66-1.84,9.01-6.55h25.5c24.73,0,50.31-.02,75.46,.06,3.67,.04,6.32-1.12,8.9-3.77,9.28-9.54,18.01-18.28,26.69-26.7,1.16-1.12,3.25-1.99,4.86-2,17.78-.18,35.13-.2,51.57-.05,.1,0,.2,0,.3,0,7.45,0,13.66-2.43,18.46-7.23,8.31-8.32,17.29-17.59,28.28-29.17,1.86-1.97,3.61-2.73,6.2-2.73h.05c14.96,.06,30.18,.06,44.89,.07,16.44,0,33.45,.01,50.17,.09h.09c4.42,0,7.29-1.42,9.3-4.61l.15-.24V128.82l-.18-.26Zm-128.33,179.6c-2.02,1.99-4.03,4.03-5.99,6.02-5.33,5.42-10.85,11.02-16.83,15.79-2.11,1.68-5.39,2.04-8.86,2.43-1.31,.14-2.65,.29-3.94,.52l-.09-.25,4.03-4.22c6.21-6.51,12.42-13.03,18.66-19.52,.37-.38,.98-.7,1.36-.71,3.07-.07,6.2-.06,9.22-.05h2.44Zm-222.64-39.62c0-2.5,.71-4.07,2.66-5.78,14.73-12.95,30.16-26.68,48.55-43.19,2.03-1.82,3.91-2.54,6.53-2.52,10.08,.12,20.32,.1,30.23,.08,3.6,0,7.2-.01,10.8-.01h3.32v21c.01,17.91,.02,36.44-.05,54.66-.01,2.96,.48,6.57,4.42,8.28,4.05,1.77,7.17-.31,9.16-2.02,14.64-12.62,29.69-25.41,43.85-37.43,8.02-6.81,15.93-7.2,22.29-1.11,5.99,5.73,6.43,14.56,1.04,20.53-4.17,4.62-8.67,9.11-13.02,13.45-1.13,1.12-2.25,2.25-3.38,3.38-20.7,20.8-42.73,42.93-64.55,64.68-1.02,1.02-2.73,2.05-4.02,2.05-28.12,.11-56.72,.1-84.38,.09h-12.68c-.15,0-.35-.04-.69-.1,0,0-.02,0-.03,0v-23.21c0-23.86,.02-48.54-.07-72.81Zm201.52,5.33c.85-13.04-5.67-24.24-17.44-29.96-10.67-5.18-23.86-3.1-33.61,5.32-7.92,6.84-15.74,13.5-24.01,20.56-2.99,2.55-6,5.12-9.04,7.72V139.31h218.39v153.55h-142.89c5.42-6.28,8.17-12.36,8.6-19Zm-44.22,54.46c6.83-6.78,13.29-13.19,19.91-19.64,.14-.14,.64-.46,2.3-.5,2.62-.07,5.3-.06,7.89-.04,.73,0,1.46,0,2.2,0-1.93,1.93-3.85,3.87-5.77,5.81-5.3,5.35-10.77,10.88-16.33,16.13-2.41,2.28-6.36,2.82-13.82,1.83l3.63-3.6Zm-172.52-72.01v114.71h-4.01v-114.71h4.01Z"/>
    <path class="cls-1" d="M288.89,163.1c-8.14-.07-15.88,3.04-21.68,8.76-5.75,5.67-8.93,13.24-8.96,21.31-.07,16.64,13.32,30.29,29.85,30.44,.09,0,.19,0,.28,0,8.08,0,15.67-3.1,21.39-8.76,5.75-5.67,8.93-13.24,8.96-21.31,.07-16.64-13.32-30.29-29.85-30.44Zm-.37,45.46h-.07c-3.94-.02-7.87-1.75-10.79-4.76-2.87-2.96-4.47-6.85-4.37-10.67,.2-8.14,7.14-14.99,15.18-14.99h.07c3.94,.02,7.87,1.75,10.79,4.76,2.87,2.96,4.47,6.85,4.37,10.67-.2,8.14-7.14,14.99-15.18,14.99Z"/>
    <path class="cls-1" d="M407.1,169.61c-20.57-.01-41.14-.02-61.71,0-5.73,0-9.05,2.7-9.1,7.4-.02,2.1,.64,3.89,1.91,5.18,1.54,1.56,3.97,2.39,7.03,2.4,4.27,.01,8.55,.01,12.82,.01,3.01,0,6.01,0,9.02,0h9.02s9.03,0,9.03,0c7.27,0,14.55,0,21.83,0,3.35,0,5.85-.83,7.44-2.45,1.27-1.3,1.9-3.04,1.86-5.19-.05-2.74-1.3-7.34-9.15-7.35Z"/>
    <path class="cls-1" d="M407.52,228.14c-14.4-.03-28.87-.03-43.03,0-5.39,.01-8.64,2.77-8.71,7.38-.03,2.1,.63,3.89,1.9,5.19,1.54,1.56,3.97,2.4,7.02,2.41,4.93,.02,9.85,.02,14.78,.01h6.33s6.47,0,6.47,0c2.16,0,4.31,0,6.47,0,2.86,0,5.72,0,8.58-.02,3.05-.01,5.48-.85,7.01-2.41,1.27-1.3,1.93-3.1,1.9-5.2-.07-4.6-3.33-7.35-8.72-7.36Z"/>
    <path class="cls-1" d="M407.79,254.15c-5.02-.04-10.04-.03-15.07-.02-2.15,0-4.3,0-6.45,0-2.25,0-4.46,0-6.7,0-5.12,0-10.42-.02-15.64,.03-4.91,.04-8.18,3.07-8.15,7.53,.03,4.5,3.27,7.41,8.25,7.42,7.2,.02,14.47,.03,21.91,.03s14.4,0,21.93-.03c5.06-.01,8.26-2.81,8.36-7.3,.05-2.12-.62-3.94-1.91-5.28-1.5-1.54-3.76-2.36-6.54-2.38Z"/>
    <path class="cls-1" d="M364.52,204.11c3.54,0,7.19,.02,10.79-.02,2.78-.03,5.04-.86,6.53-2.41,1.29-1.34,1.95-3.17,1.9-5.28-.11-4.47-3.32-7.26-8.38-7.28-11.02-.05-21.11-.05-30.85,0-4.98,.03-8.21,2.95-8.23,7.45-.02,4.5,3.19,7.44,8.17,7.51,2.03,.03,4.08,.04,6.12,.04,1.55,0,3.1,0,4.62,0,1.54,0,3.09,0,4.63,0,1.53,0,3.14,0,4.71,0Z"/>
  </g>
</svg>